<svg width="1400" height="820" viewBox="0 0 1400 820" fill="none" xmlns="http://www.w3.org/2000/svg">
  <rect width="1400" height="820" rx="28" fill="#0F172A"/>
  <text x="70" y="92" fill="#E2E8F0" font-size="48" font-family="Segoe UI, Arial, sans-serif" font-weight="700">Docker Compose 管理多容器应用</text>
  <text x="70" y="138" fill="#94A3B8" font-size="26" font-family="Segoe UI, Arial, sans-serif">把 Web、API、数据库、缓存写进一个 compose.yaml，再用一条命令拉起整套环境</text>

  <rect x="90" y="210" width="360" height="500" rx="24" fill="#111827" stroke="#38BDF8" stroke-width="2"/>
  <text x="158" y="272" fill="#67E8F9" font-size="40" font-family="Segoe UI, Arial, sans-serif" font-weight="700">compose.yaml</text>
  <rect x="140" y="320" width="260" height="52" rx="12" fill="#0F172A" stroke="#334155"/>
  <text x="170" y="354" fill="#E2E8F0" font-size="24" font-family="Consolas, monospace">services:</text>
  <rect x="140" y="392" width="260" height="52" rx="12" fill="#0F172A" stroke="#334155"/>
  <text x="170" y="426" fill="#E2E8F0" font-size="24" font-family="Consolas, monospace">  web:</text>
  <rect x="140" y="464" width="260" height="52" rx="12" fill="#0F172A" stroke="#334155"/>
  <text x="170" y="498" fill="#E2E8F0" font-size="24" font-family="Consolas, monospace">  api:</text>
  <rect x="140" y="536" width="260" height="52" rx="12" fill="#0F172A" stroke="#334155"/>
  <text x="170" y="570" fill="#E2E8F0" font-size="24" font-family="Consolas, monospace">  db:</text>

  <path d="M470 460H585" stroke="#7DD3FC" stroke-width="8" stroke-linecap="round"/>
  <path d="M563 440L605 460L563 480" fill="none" stroke="#7DD3FC" stroke-width="8" stroke-linecap="round" stroke-linejoin="round"/>
  <text x="480" y="426" fill="#93C5FD" font-size="24" font-family="Segoe UI, Arial, sans-serif">docker compose up</text>

  <rect x="625" y="220" width="700" height="500" rx="24" fill="#111827" stroke="#60A5FA" stroke-width="2"/>
  <rect x="700" y="300" width="180" height="96" rx="20" fill="#1D4ED8"/>
  <text x="765" y="357" fill="#FFFFFF" font-size="34" font-family="Segoe UI, Arial, sans-serif">Web</text>
  <rect x="980" y="300" width="180" height="96" rx="20" fill="#0EA5E9"/>
  <text x="1045" y="357" fill="#FFFFFF" font-size="34" font-family="Segoe UI, Arial, sans-serif">API</text>
  <rect x="840" y="500" width="180" height="96" rx="20" fill="#0891B2"/>
  <text x="889" y="557" fill="#FFFFFF" font-size="34" font-family="Segoe UI, Arial, sans-serif">DB</text>
  <path d="M880 348H980" stroke="#BAE6FD" stroke-width="8" stroke-linecap="round"/>
  <path d="M1040 396L930 500" stroke="#BAE6FD" stroke-width="8" stroke-linecap="round"/>
  <path d="M840 500L780 396" stroke="#BAE6FD" stroke-width="8" stroke-linecap="round"/>
  <rect x="690" y="646" width="570" height="42" rx="14" fill="#0F172A" stroke="#334155"/>
  <text x="760" y="675" fill="#94A3B8" font-size="24" font-family="Segoe UI, Arial, sans-serif">统一管理服务、网络、端口、卷和环境变量</text>
</svg>