<svg width="1600" height="900" viewBox="0 0 1600 900" fill="none" xmlns="http://www.w3.org/2000/svg">
  <rect width="1600" height="900" rx="36" fill="#0B1220"/>
  <rect x="60" y="60" width="1480" height="780" rx="28" fill="url(#bg)" stroke="#1E3A8A" stroke-width="2"/>
  <circle cx="1290" cy="170" r="180" fill="#60A5FA" fill-opacity="0.18"/>
  <circle cx="1380" cy="120" r="90" fill="#22D3EE" fill-opacity="0.14"/>
  <circle cx="230" cy="720" r="140" fill="#2563EB" fill-opacity="0.12"/>
  <text x="110" y="190" fill="#E2E8F0" font-size="78" font-family="Segoe UI, Arial, sans-serif" font-weight="700">Docker 容器入门指南</text>
  <text x="110" y="270" fill="#BFDBFE" font-size="34" font-family="Segoe UI, Arial, sans-serif">从概念、镜像、容器、网络、存储到 Compose，一篇讲清楚</text>

  <rect x="110" y="360" width="360" height="210" rx="24" fill="#111827" stroke="#38BDF8" stroke-width="2"/>
  <text x="150" y="420" fill="#93C5FD" font-size="28" font-family="Segoe UI, Arial, sans-serif" font-weight="700">开发机</text>
  <rect x="150" y="450" width="280" height="82" rx="16" fill="#1D4ED8"/>
  <text x="205" y="502" fill="#FFFFFF" font-size="34" font-family="Segoe UI, Arial, sans-serif" font-weight="700">Docker Engine</text>

  <rect x="540" y="330" width="950" height="380" rx="30" fill="#0F172A" stroke="#60A5FA" stroke-width="2"/>
  <text x="600" y="396" fill="#E0F2FE" font-size="36" font-family="Segoe UI, Arial, sans-serif" font-weight="700">容器化应用栈</text>

  <rect x="600" y="440" width="240" height="180" rx="22" fill="#1E293B" stroke="#22D3EE" stroke-width="2"/>
  <text x="675" y="485" fill="#67E8F9" font-size="26" font-family="Segoe UI, Arial, sans-serif" font-weight="700">frontend</text>
  <rect x="645" y="515" width="150" height="58" rx="14" fill="#0EA5E9"/>
  <text x="688" y="552" fill="#FFFFFF" font-size="22" font-family="Segoe UI, Arial, sans-serif">Nginx</text>

  <rect x="875" y="440" width="240" height="180" rx="22" fill="#1E293B" stroke="#38BDF8" stroke-width="2"/>
  <text x="955" y="485" fill="#93C5FD" font-size="26" font-family="Segoe UI, Arial, sans-serif" font-weight="700">api</text>
  <rect x="920" y="515" width="150" height="58" rx="14" fill="#2563EB"/>
  <text x="972" y="552" fill="#FFFFFF" font-size="22" font-family="Segoe UI, Arial, sans-serif">Node</text>

  <rect x="1150" y="440" width="240" height="180" rx="22" fill="#1E293B" stroke="#7DD3FC" stroke-width="2"/>
  <text x="1224" y="485" fill="#BAE6FD" font-size="26" font-family="Segoe UI, Arial, sans-serif" font-weight="700">db</text>
  <rect x="1195" y="515" width="150" height="58" rx="14" fill="#0284C7"/>
  <text x="1234" y="552" fill="#FFFFFF" font-size="22" font-family="Segoe UI, Arial, sans-serif">Postgres</text>

  <path d="M470 486C508 486 510 486 540 486" stroke="#7DD3FC" stroke-width="8" stroke-linecap="round"/>
  <path d="M520 466L560 486L520 506" fill="none" stroke="#7DD3FC" stroke-width="8" stroke-linecap="round" stroke-linejoin="round"/>

  <text x="110" y="742" fill="#93C5FD" font-size="28" font-family="Segoe UI, Arial, sans-serif">适合想真正理解 Docker 容器怎么工作的开发者</text>

  <defs>
    <linearGradient id="bg" x1="120" y1="100" x2="1480" y2="840" gradientUnits="userSpaceOnUse">
      <stop stop-color="#111827"/>
      <stop offset="1" stop-color="#0F172A"/>
    </linearGradient>
  </defs>
</svg>